# xmcd
# 
# Track frame offsets:
#     150
#     9789
#     37479
#     68495
#     102002
#     127479
#     154480
#     183556
#     214191
#     239114
#     267082
#     297895
#     321144
# 
# Disc length: 4696
# 
# Revision: 1
# Processed by: cddbd v1.5.2PL0 Copyright (c) Steve Scherf et al.
# Submitted via: fre:ac v1.0.17
# 
DISCID=c712560d
DTITLE=Various Artist - Opus Quarto
DYEAR=2010
DGENRE=Progressive House, Progressive Trance
TTITLE0=01Thomas DeColita - Jerusalem (Opus Quarto Intro)
TTITLE1=02Amurai feat. Sean Ryan - Killing Me Inside (Intro Mix)
TTITLE2=03Makotrax - Persuade Me
TTITLE3=04Pinkflood feat. Tiff Lacey - Someone Like You (James Nelson Like Prog Remix)
TTITLE4=05Mr Sam feat. Kirsty Hawkshaw - One Day (KhoMha Remix)
TTITLE5=06KhoMha - Sharem (Sunrise Mix)
TTITLE6=07Mr Sam vs. Fred Baker pres. As One - Forever Waiting (Sesta Remix)
TTITLE7=08Natho - Dreamer's Symphony
TTITLE8=09Sesta - Runaway
TTITLE9=10Nuera feat. Szen - Love Lost (Electro Mix)
TTITLE10=11Ruby and Tony - Hindi
TTITLE11=12Sesta - On Fire
TTITLE12=13Moonpax - Ahava
EXTD=
EXTT0=
EXTT1=
EXTT2=
EXTT3=
EXTT4=
EXTT5=
EXTT6=
EXTT7=
EXTT8=
EXTT9=
EXTT10=
EXTT11=
EXTT12=
PLAYORDER=
